<?xml version="1.0" encoding="UTF-8"?>
<!DOCTYPE svg PUBLIC "-//W3C//DTD SVG 1.1//EN" "http://www.w3.org/Graphics/SVG/1.1/DTD/svg11.dtd">
<!-- Creator: CorelDRAW X5 -->
<svg xmlns="http://www.w3.org/2000/svg" xml:space="preserve" width="1609px" height="1030px" style="shape-rendering:geometricPrecision; text-rendering:geometricPrecision; image-rendering:optimizeQuality; fill-rule:evenodd; clip-rule:evenodd"
viewBox="0 0 108 69"
 xmlns:xlink="http://www.w3.org/1999/xlink">
 <defs>
  <style type="text/css">
   <![CDATA[
    .fil0 {fill:#555555;fill-rule:nonzero}
   ]]>
  </style>
 </defs>
 <g id="Слой_x0020_1">
  <metadata id="CorelCorpID_0Corel-Layer"/>
  <path class="fil0" d="M47 19c-3,1 -18,6 -27,12 -2,1 -3,2 -4,4 -1,2 -1,4 -1,5 0,0 0,11 0,11l32 -13 0 -19zm14 44l-14 6 0 0 0 -2 0 -17 -33 13 -14 6c0,-15 0,-15 0,-30 0,-3 1,-8 4,-11 1,-1 2,-3 4,-4 10,-8 39,-18 39,-18l14 -6c0,0 0,32 0,32l18 -7c9,-4 15,-5 15,-15l0 -4 14 -6 0 12c0,8 -2,12 -5,16 -1,1 -2,2 -3,3 1,1 2,3 3,4 4,5 6,14 6,22l0 7 -14 6 0 -13c0,-10 -6,-22 -15,-19l-18 7 0 19z"/>
 </g>
</svg>
