<?xml version="1.0" encoding="UTF-8"?>
<!DOCTYPE svg PUBLIC "-//W3C//DTD SVG 1.1//EN" "http://www.w3.org/Graphics/SVG/1.1/DTD/svg11.dtd">
<!-- Creator: CorelDRAW X5 -->
<svg xmlns="http://www.w3.org/2000/svg" xml:space="preserve" width="6139px" height="1062px" style="shape-rendering:geometricPrecision; text-rendering:geometricPrecision; image-rendering:optimizeQuality; fill-rule:evenodd; clip-rule:evenodd"
viewBox="0 0 3287 569"
 xmlns:xlink="http://www.w3.org/1999/xlink">
 <defs>
  <style type="text/css">
   <![CDATA[
    .fil0 {fill:#555555;}
    .fil1 {fill:#555555;fill-rule:nonzero}
    .fil2 {fill:#E10D0D;fill-rule:nonzero}
   ]]>
  </style>
 </defs>
 <g id="Слой_x0020_1">
  <metadata id="CorelCorpID_0Corel-Layer"/>
  <path class="fil0" d="M332 317l-218 87 0 -88c0,-10 3,-25 11,-39 7,-12 17,-23 30,-31 72,-45 194,-86 217,-93l0 145 0 3 0 250 113 -45 0 -148 143 -56c72,-29 121,67 120,148l0 101 113 -45 0 -53c0,-63 -15,-134 -45,-172 -7,-9 -15,-22 -24,-30 9,-8 18,-13 26,-22 30,-38 43,-68 43,-131l0 -98 -113 45 0 31c-1,82 -46,94 -118,123l-145 58 0 -256 -113 45c0,0 -231,84 -313,146 -12,9 -22,20 -29,29 -20,24 -30,65 -30,88 0,123 0,124 0,243l113 -45 220 -87 0 -102z"/>
  <path class="fil1" d="M1215 202l-34 0 -13 -35 -62 0 -13 35 -33 0 60 -155 33 0 62 155zm-57 -62l-22 -57 -21 57 43 0zm74 -51l65 0c13,0 23,2 30,7 7,5 10,12 10,22 0,6 -2,12 -5,16 -4,5 -8,8 -14,9 8,2 14,5 17,11 4,5 6,11 6,17 0,9 -3,16 -10,21 -6,5 -16,8 -29,8l-71 0 0 -113zm30 47l19 0c9,0 16,-1 20,-4 4,-2 6,-6 6,-11 0,-5 -2,-8 -6,-10 -4,-2 -11,-3 -21,-3l-19 0 0 28zm0 47l24 0c9,0 15,-1 19,-3 4,-2 6,-6 6,-11 0,-6 -2,-9 -7,-11 -4,-2 -13,-3 -26,-3l-15 0 0 29zm87 -93l102 0 0 24 -36 0 0 88 -30 0 0 -88 -36 0 0 -24zm110 55c0,-10 2,-19 7,-29 5,-9 12,-16 21,-21 9,-5 19,-7 30,-7 17,0 31,6 42,17 11,11 16,25 16,42 0,17 -5,31 -16,42 -11,11 -25,17 -41,17 -10,0 -20,-2 -29,-7 -9,-5 -16,-11 -21,-21 -5,-9 -7,-20 -7,-33zm31 2c0,11 3,20 8,26 5,6 12,9 20,9 8,0 14,-3 19,-9 5,-6 8,-15 8,-26 0,-11 -3,-20 -8,-25 -5,-6 -12,-9 -19,-9 -8,0 -14,3 -20,9 -5,6 -8,14 -8,26zm107 -56l37 0 28 78 28 -78 37 0 0 113 -25 0 0 -74 -27 74 -26 0 -26 -74 0 74 -25 0 0 -113zm150 55c0,-10 2,-19 7,-29 5,-9 12,-16 21,-21 9,-5 19,-7 30,-7 17,0 31,6 42,17 11,11 16,25 16,42 0,17 -5,31 -16,42 -11,11 -25,17 -41,17 -10,0 -20,-2 -29,-7 -9,-5 -16,-11 -21,-21 -5,-9 -7,-20 -7,-33zm31 2c0,11 3,20 8,26 5,6 12,9 20,9 8,0 14,-3 19,-9 5,-6 8,-15 8,-26 0,-11 -3,-20 -8,-25 -5,-6 -12,-9 -19,-9 -8,0 -14,3 -20,9 -5,6 -8,14 -8,26zm193 -103l20 0c-1,9 -3,16 -7,20 -4,5 -14,7 -30,7 -2,0 -4,0 -6,0l-4 0c-9,0 -17,1 -23,3 -6,2 -11,6 -15,12 -4,6 -6,16 -6,29 4,-8 10,-14 17,-18 7,-4 15,-6 25,-6 15,0 27,6 38,17 10,11 15,25 15,40 0,16 -5,29 -16,41 -11,11 -25,17 -42,17 -12,0 -22,-3 -32,-9 -9,-6 -16,-14 -19,-23 -4,-10 -6,-26 -6,-49 0,-27 5,-46 15,-58 10,-12 27,-18 52,-18l15 0c4,0 7,-1 8,-4zm-60 104c0,10 3,18 8,24 5,6 11,9 19,9 8,0 14,-3 20,-9 5,-6 8,-14 8,-24 0,-10 -3,-18 -8,-24 -5,-6 -12,-9 -19,-9 -7,0 -14,3 -19,9 -5,6 -8,14 -8,24zm108 -57l29 0 0 71 46 -71 29 0 0 113 -29 0 0 -72 -46 72 -29 0 0 -113zm142 0l100 0 0 113 -30 0 0 -88 -40 0 0 51c0,13 -1,22 -4,27 -3,5 -6,9 -10,10 -4,2 -9,2 -17,2 -5,0 -11,-1 -19,-2l0 -22c1,0 2,0 5,0 3,0 6,0 7,0 4,0 7,-1 7,-4 1,-3 1,-10 1,-22l0 -65zm130 0l30 0 0 47 30 0c12,0 21,1 27,3 6,2 11,5 16,11 4,6 6,12 6,20 0,11 -4,19 -11,25 -7,5 -19,8 -33,8l-64 0 0 -113zm30 93l28 0c9,0 14,-1 17,-4 2,-3 4,-6 4,-10 0,-5 -2,-9 -6,-11 -4,-2 -12,-3 -22,-3l-19 0 0 28zm102 -93l30 0 0 41 43 0 0 -41 30 0 0 113 -30 0 0 -47 -43 0 0 47 -30 0 0 -113zm133 0l30 0 0 47 30 0c12,0 21,1 27,2 6,2 11,5 16,11 4,6 6,12 6,20 0,11 -4,19 -11,25 -7,5 -19,8 -34,8l-64 0 0 -113zm30 93l28 0c7,0 12,-1 16,-3 3,-2 5,-6 5,-11 0,-5 -2,-9 -6,-11 -4,-2 -12,-3 -23,-3l-19 0 0 28zm96 -93l30 0 0 113 -30 0 0 -113zm59 0l29 0 0 71 46 -71 29 0 0 113 -29 0 0 -72 -46 72 -29 0 0 -113zm71 -45l15 0c-1,10 -4,17 -10,23 -6,5 -14,8 -23,8 -9,0 -17,-3 -23,-8 -6,-5 -9,-13 -10,-23l15 0c1,5 2,9 5,11 3,3 7,4 13,4 6,0 10,-1 13,-4 3,-3 5,-6 5,-11z"/>
  <path class="fil2" d="M1292 536l-84 0 -55 -107 -25 0 0 107 -73 30 0 -311 73 0 0 100 0 2 23 0 2 -3 50 -99 80 0 -71 133 81 148zm9 -136c0,-46 10,-81 31,-107 21,-26 49,-38 86,-38 38,0 67,13 87,38 20,25 31,60 31,105 0,33 -4,60 -13,81 -9,21 -22,37 -39,49 -17,12 -38,18 -63,18 -26,0 -47,-5 -64,-15 -17,-10 -30,-26 -41,-48 -10,-22 -16,-49 -16,-82zm70 0c0,28 4,49 13,61 9,12 20,19 35,19 15,0 27,-6 35,-18 8,-12 12,-34 12,-65 0,-26 -4,-46 -13,-58 -9,-12 -20,-18 -35,-18 -14,0 -26,6 -34,19 -9,12 -13,33 -13,61zm203 -141l70 0 0 79 77 0 0 -79 70 0 0 281 -70 0 0 -133 -77 0 0 133 -70 29 0 -310zm248 0l213 0 0 69 -72 0 0 211 -70 0 0 -211 -72 0 0 -69zm462 0l0 281 -66 0 0 -154 -84 154 -67 0 0 -281 66 0 0 155 85 -155 66 0zm47 0l70 0 0 79 77 0 0 -79 70 0 0 281 -70 0 0 -133 -77 0 0 133 -70 29 0 -310zm264 0l188 0 0 60 -117 0 0 45 109 0 0 57 -109 0 0 55 121 0 0 64 -191 0 0 -281zm229 0l70 0 0 79 77 0 0 -79 70 0 0 281 -70 0 0 -133 -77 0 0 133 -70 29 0 -310zm248 0l213 0 0 69 -72 0 0 211 -70 0 0 -211 -72 0 0 -69z"/>
 </g>
</svg>
